<svg xmlns="http://www.w3.org/2000/svg" viewBox="0 0 200 90">
  <defs>
    <linearGradient id="goldGrad" x1="0%" y1="0%" x2="0%" y2="100%">
      <stop offset="0%" style="stop-color:#ffd700"/>
      <stop offset="50%" style="stop-color:#ffb347"/>
      <stop offset="100%" style="stop-color:#daa520"/>
    </linearGradient>
    <linearGradient id="gemGrad" x1="0%" y1="0%" x2="0%" y2="100%">
      <stop offset="0%" style="stop-color:#ff1744"/>
      <stop offset="100%" style="stop-color:#c51162"/>
    </linearGradient>
  </defs>

  <!-- Crown base -->
  <path d="M 10 85 L 10 60 L 30 30 L 50 55 L 75 15 L 100 45 L 125 15 L 150 55 L 170 30 L 190 60 L 190 85 Z"
        fill="url(#goldGrad)"
        stroke="#b8860b"
        stroke-width="3"/>

  <!-- Crown band -->
  <rect x="10" y="70" width="180" height="15" fill="url(#goldGrad)" stroke="#b8860b" stroke-width="2"/>

  <!-- Gems -->
  <circle cx="100" cy="40" r="8" fill="url(#gemGrad)" stroke="#8b0000" stroke-width="1"/>
  <circle cx="50" cy="50" r="6" fill="#4169e1" stroke="#191970" stroke-width="1"/>
  <circle cx="150" cy="50" r="6" fill="#4169e1" stroke="#191970" stroke-width="1"/>
  <circle cx="30" cy="55" r="5" fill="#32cd32" stroke="#228b22" stroke-width="1"/>
  <circle cx="170" cy="55" r="5" fill="#32cd32" stroke="#228b22" stroke-width="1"/>

  <!-- Band decorations -->
  <circle cx="40" cy="77" r="4" fill="url(#gemGrad)"/>
  <circle cx="70" cy="77" r="4" fill="#4169e1"/>
  <circle cx="100" cy="77" r="4" fill="url(#gemGrad)"/>
  <circle cx="130" cy="77" r="4" fill="#4169e1"/>
  <circle cx="160" cy="77" r="4" fill="url(#gemGrad)"/>
</svg>
